<?xml version="1.0" standalone="no"?>
<!DOCTYPE svg PUBLIC "-//W3C//DTD SVG 20010904//EN"
 "http://www.w3.org/TR/2001/REC-SVG-20010904/DTD/svg10.dtd">
<svg version="1.0" xmlns="http://www.w3.org/2000/svg"
 width="560.000000pt" height="393.000000pt" viewBox="0 0 560.000000 393.000000"
 preserveAspectRatio="xMidYMid meet">
<metadata>
Created by potrace 1.16, written by Peter Selinger 2001-2019
</metadata>
<g transform="translate(0.000000,393.000000) scale(0.100000,-0.100000)"
fill="#000000" stroke="none">
<path d="M2665 3560 c-116 -7 -198 -22 -240 -43 -47 -24 -108 -84 -131 -129
-23 -46 -23 -48 -5 -48 11 0 21 5 23 11 8 24 130 22 263 -6 71 -14 135 -31
142 -37 21 -17 15 -30 -8 -18 -11 7 -28 9 -36 6 -9 -4 -22 -1 -29 5 -7 6 -18
8 -23 5 -5 -4 -13 -1 -16 5 -4 5 -14 8 -22 5 -8 -3 -20 -3 -26 1 -7 5 -21 8
-32 9 -11 1 -58 7 -104 13 -45 7 -85 10 -88 8 -2 -3 20 -8 49 -12 148 -18 275
-55 374 -109 l64 -36 48 29 c59 37 326 120 410 128 34 3 62 10 62 14 0 21 -78
93 -136 125 -104 58 -315 87 -539 74z"/>
<path d="M3909 2944 c5 -16 14 -42 20 -59 43 -126 42 -427 -2 -463 -6 -5 -57
-19 -112 -31 -55 -13 -107 -25 -115 -28 -8 -4 -19 -5 -24 -4 -4 1 -13 -2 -20
-7 -6 -6 -27 -13 -46 -17 -19 -4 -68 -18 -109 -32 -81 -27 -70 -29 -136 32
-11 11 -30 26 -41 32 -10 7 -45 31 -77 53 -32 22 -61 40 -66 40 -4 0 -16 9
-26 20 -10 12 -24 19 -31 16 -7 -3 -14 4 -17 15 -3 12 -11 17 -20 13 -9 -3
-16 3 -20 15 -3 12 -13 21 -24 21 -10 0 -23 8 -30 19 -8 13 -19 17 -38 14 -18
-4 -25 -2 -23 8 2 8 -6 14 -17 15 -34 2 -72 21 -93 49 -12 15 -26 24 -32 20
-5 -3 -10 -2 -10 4 0 20 -44 -7 -250 -150 -62 -44 -239 -190 -274 -228 -17
-17 -36 -31 -43 -31 -17 0 -16 -10 2 -47 8 -16 17 -45 20 -64 4 -30 40 -197
48 -224 2 -5 7 -26 11 -45 5 -19 13 -41 18 -47 6 -7 8 -13 5 -13 -15 0 64
-207 90 -236 l20 -22 -38 -65 c-20 -36 -35 -68 -32 -71 6 -6 12 2 50 71 34 62
41 65 114 49 83 -19 210 -27 447 -30 125 -1 192 2 192 9 0 5 23 -15 51 -45 50
-53 51 -54 29 -15 -13 22 -32 52 -41 66 -15 22 -16 29 -5 45 19 27 69 160 110
294 50 159 63 214 71 292 l7 68 52 15 c142 43 432 115 461 115 31 0 74 -25
103 -60 7 -8 46 -65 87 -125 80 -118 138 -235 150 -300 11 -64 3 -66 103 20
38 32 62 79 62 121 0 23 -2 25 -16 13 -13 -11 -14 -9 -9 14 12 45 -41 286
-104 475 -60 181 -79 218 -140 279 -15 15 -32 35 -37 43 -12 20 -59 50 -78 50
-9 0 -23 11 -32 25 -9 14 -21 25 -26 25 -6 0 -5 -7 3 -16 11 -13 9 -14 -17 -8
-16 4 -37 13 -46 22 -16 13 -17 12 -9 -14z"/>
<path d="M1617 2905 c-60 -22 -152 -82 -186 -121 -90 -102 -197 -403 -216
-610 -10 -104 17 -159 125 -246 19 -16 37 -28 41 -28 4 0 14 21 23 48 38 115
214 380 285 431 l28 20 -19 58 c-14 40 -22 102 -27 203 -8 141 -10 135 -16
-40 -4 -143 -4 -141 -26 -95 -16 33 -19 54 -15 120 5 92 33 225 47 225 5 0 9
-12 9 -27 0 -39 7 -25 14 30 7 54 1 57 -67 32z"/>
<path d="M3961 1200 c-102 -53 -370 -127 -431 -118 -26 4 -30 1 -36 -26 -19
-89 -172 -323 -273 -419 -71 -67 -71 -67 -51 -87 39 -39 182 -101 240 -106 30
-2 47 -1 37 2 -13 4 3 16 58 45 160 81 349 207 428 284 82 79 102 113 123 210
23 106 9 237 -26 242 -8 1 -39 -11 -69 -27z"/>
<path d="M1561 1183 c-23 -81 -3 -206 44 -272 41 -59 69 -88 82 -84 6 2 19 -7
29 -21 9 -14 22 -26 29 -26 6 0 22 -14 35 -30 13 -17 25 -28 28 -25 3 2 20 -9
38 -25 18 -16 49 -36 67 -45 19 -9 48 -28 65 -43 17 -15 39 -34 49 -42 10 -8
41 -34 68 -57 29 -24 65 -44 88 -48 20 -4 37 -12 37 -17 0 -6 12 -7 28 -4 41
10 155 59 170 73 8 7 22 18 33 23 27 15 24 28 -19 69 -98 95 -275 349 -292
419 l-11 47 -72 1 c-44 1 -110 12 -171 28 -95 27 -261 90 -280 107 -20 18 -35
8 -45 -28z"/>
</g>
</svg>
